<svg xmlns="http://www.w3.org/2000/svg" width="1200" height="700" viewBox="0 0 1200 700" role="img" aria-labelledby="title desc">
  <title id="title">FastGPT customer support workflow</title><desc id="desc">A guarded workflow routes general questions, knowledge queries and account actions.</desc>
  <defs><linearGradient id="bg3" x1="0" x2="1" y2="1"><stop stop-color="#08172a"/><stop offset="1" stop-color="#153449"/></linearGradient><style>.t{font-family:system-ui,-apple-system,"Segoe UI",sans-serif;fill:#eef9ff}.h{font-size:27px;font-weight:700}.m{font-size:18px;font-weight:650}.s{font-size:14px;fill:#b5ccda}.n{fill:#102d43;stroke:#3b6680;stroke-width:2}.g{fill:#113d43;stroke:#42d9c7;stroke-width:2}.w{fill:#44351e;stroke:#ffc56a;stroke-width:2}.r{fill:#402936;stroke:#ff8cab;stroke-width:2}.a{stroke:#51d8cd;stroke-width:3;fill:none;marker-end:url(#ar)}.aw{stroke:#ffc56a;stroke-width:3;fill:none;marker-end:url(#aw)}</style><marker id="ar" markerWidth="9" markerHeight="9" refX="8" refY="3" orient="auto"><path d="M0 0L8 3 0 6z" fill="#51d8cd"/></marker><marker id="aw" markerWidth="9" markerHeight="9" refX="8" refY="3" orient="auto"><path d="M0 0L8 3 0 6z" fill="#ffc56a"/></marker></defs>
  <rect width="1200" height="700" rx="28" fill="url(#bg3)"/><text class="t h" x="55" y="60">A guarded support workflow · 可控的客服工作流</text><text class="t s" x="55" y="91">Deterministic routes around probabilistic model decisions</text>
  <g transform="translate(55 276)"><rect class="g" width="170" height="100" rx="20"/><text class="t m" x="85" y="41" text-anchor="middle">User input</text><text class="t s" x="85" y="69" text-anchor="middle">用户问题</text></g>
  <g transform="translate(285 276)"><rect class="n" width="180" height="100" rx="20"/><text class="t m" x="90" y="39" text-anchor="middle">Classify</text><text class="t s" x="90" y="66" text-anchor="middle">咨询 / 账户 / 闲聊</text></g><path class="a" d="M225 326h56"/>
  <g transform="translate(540 112)"><rect class="n" width="190" height="100" rx="20"/><text class="t m" x="95" y="39" text-anchor="middle">Dataset search</text><text class="t s" x="95" y="67" text-anchor="middle">制度与产品知识</text></g>
  <g transform="translate(540 276)"><rect class="w" width="190" height="100" rx="20"/><text class="t m" x="95" y="38" text-anchor="middle">Authorize</text><text class="t s" x="95" y="66" text-anchor="middle">身份与权限检查</text></g>
  <g transform="translate(540 440)"><rect class="n" width="190" height="100" rx="20"/><text class="t m" x="95" y="38" text-anchor="middle">Fixed reply</text><text class="t s" x="95" y="66" text-anchor="middle">明确边界 / 转人工</text></g>
  <path class="a" d="M465 326C500 326 500 162 536 162"/><path class="aw" d="M465 326h71"/><path class="a" d="M465 326C500 326 500 490 536 490"/>
  <text class="t s" x="482" y="170">knowledge</text><text class="t s" x="477" y="310">account</text><text class="t s" x="489" y="484">other</text>
  <g transform="translate(805 112)"><rect class="g" width="190" height="100" rx="20"/><text class="t m" x="95" y="38" text-anchor="middle">AI answer</text><text class="t s" x="95" y="66" text-anchor="middle">基于引用生成</text></g>
  <g transform="translate(805 276)"><rect class="w" width="190" height="100" rx="20"/><text class="t m" x="95" y="38" text-anchor="middle">HR / CRM API</text><text class="t s" x="95" y="66" text-anchor="middle">受控实时查询</text></g>
  <g transform="translate(805 440)"><rect class="r" width="190" height="100" rx="20"/><text class="t m" x="95" y="38" text-anchor="middle">Safe fallback</text><text class="t s" x="95" y="66" text-anchor="middle">错误不泄露 / 可追踪</text></g>
  <path class="a" d="M730 162h71"/><path class="aw" d="M730 326h71"/><path class="a" d="M730 490h71"/>
  <g transform="translate(1045 276)"><rect class="g" width="110" height="100" rx="20"/><text class="t m" x="55" y="41" text-anchor="middle">Reply</text><text class="t s" x="55" y="69" text-anchor="middle">返回</text></g>
  <path class="a" d="M995 162c35 0 30 126 46 144M995 326h46M995 490c35 0 30-126 46-144"/>
  <g transform="translate(305 608)"><rect width="590" height="48" rx="24" fill="#0d273b" stroke="#345e75"/><text class="t s" x="295" y="30" text-anchor="middle">Every node exposes inputs, outputs, latency and errors · 每个节点都可观察</text></g>
</svg>
