<svg xmlns="http://www.w3.org/2000/svg" viewBox="0 0 1200 675" width="1200" height="675">
  <defs>
    <linearGradient id="bgGrad" x1="0%" y1="0%" x2="100%" y2="100%">
      <stop offset="0%" stop-color="#1a1a2e"/>
      <stop offset="50%" stop-color="#16213e"/>
      <stop offset="100%" stop-color="#0f3460"/>
    </linearGradient>
    <linearGradient id="accentGrad" x1="0%" y1="0%" x2="100%" y2="0%">
      <stop offset="0%" stop-color="#e94560"/>
      <stop offset="100%" stop-color="#7b2ff7"/>
    </linearGradient>
    <linearGradient id="blueGrad" x1="0%" y1="0%" x2="100%" y2="0%">
      <stop offset="0%" stop-color="#00d2ff"/>
      <stop offset="100%" stop-color="#3a7bd5"/>
    </linearGradient>
  </defs>
  <rect width="1200" height="675" fill="url(#bgGrad)"/>
  <circle cx="200" cy="150" r="180" fill="#e94560" opacity="0.08"/>
  <circle cx="1000" cy="520" r="220" fill="#7b2ff7" opacity="0.08"/>
  <g opacity="0.15" fill="none" stroke="#00d2ff" stroke-width="1">
    <line x1="0" y1="100" x2="1200" y2="100"/>
    <line x1="0" y1="200" x2="1200" y2="200"/>
    <line x1="0" y1="300" x2="1200" y2="300"/>
    <line x1="0" y1="400" x2="1200" y2="400"/>
    <line x1="0" y1="500" x2="1200" y2="500"/>
  </g>
  <g transform="translate(600,337)">
    <text text-anchor="middle" font-family="Segoe UI,Arial,sans-serif" font-size="86" font-weight="800" fill="#ffffff">CI/CD</text>
    <text text-anchor="middle" y="60" font-family="Segoe UI,Arial,sans-serif" font-size="28" font-weight="400" fill="#00d2ff" opacity="0.9">Continuous Integration &amp; Continuous Deployment</text>
  </g>
  <g transform="translate(180,490)">
    <rect x="0" y="0" width="130" height="50" rx="8" fill="url(#blueGrad)" opacity="0.9"/>
    <text x="65" y="32" text-anchor="middle" font-family="Segoe UI,Arial,sans-serif" font-size="16" font-weight="600" fill="#fff">Build</text>
  </g>
  <g transform="translate(340,490)">
    <rect x="0" y="0" width="130" height="50" rx="8" fill="url(#blueGrad)" opacity="0.9"/>
    <text x="65" y="32" text-anchor="middle" font-family="Segoe UI,Arial,sans-serif" font-size="16" font-weight="600" fill="#fff">Test</text>
  </g>
  <g transform="translate(500,490)">
    <rect x="0" y="0" width="130" height="50" rx="8" fill="url(#accentGrad)" opacity="0.9"/>
    <text x="65" y="32" text-anchor="middle" font-family="Segoe UI,Arial,sans-serif" font-size="16" font-weight="600" fill="#fff">Package</text>
  </g>
  <g transform="translate(660,490)">
    <rect x="0" y="0" width="130" height="50" rx="8" fill="url(#accentGrad)" opacity="0.9"/>
    <text x="65" y="32" text-anchor="middle" font-family="Segoe UI,Arial,sans-serif" font-size="16" font-weight="600" fill="#fff">Deploy</text>
  </g>
  <g transform="translate(820,490)">
    <rect x="0" y="0" width="130" height="50" rx="8" fill="#22c55e" opacity="0.9"/>
    <text x="65" y="32" text-anchor="middle" font-family="Segoe UI,Arial,sans-serif" font-size="16" font-weight="600" fill="#fff">Monitor</text>
  </g>
  <g stroke="#00d2ff" stroke-width="2" fill="none" opacity="0.6">
    <line x1="310" y1="515" x2="340" y2="515"/>
    <polygon points="340,515 332,511 332,519"/>
    <line x1="470" y1="515" x2="500" y2="515"/>
    <polygon points="500,515 492,511 492,519"/>
    <line x1="630" y1="515" x2="660" y2="515"/>
    <polygon points="660,515 652,511 652,519"/>
    <line x1="790" y1="515" x2="820" y2="515"/>
    <polygon points="820,515 812,511 812,519"/>
  </g>
  <g transform="translate(100,180)" opacity="0.3" fill="none" stroke="#00d2ff" stroke-width="2">
    <path d="M0,0 L40,0 L40,40 L0,40 Z M10,10 L30,10 M10,20 L30,20 M10,30 L30,30"/>
  </g>
  <g transform="translate(1040,160)" opacity="0.3" fill="none" stroke="#e94560" stroke-width="2">
    <circle cx="20" cy="20" r="18"/>
    <circle cx="20" cy="20" r="8"/>
    <line x1="20" y1="2" x2="20" y2="10"/>
    <line x1="20" y1="30" x2="20" y2="38"/>
    <line x1="2" y1="20" x2="10" y2="20"/>
    <line x1="30" y1="20" x2="38" y2="20"/>
  </g>
</svg>
